<svg width="316" height="316" viewBox="0 0 316 316" fill="none" xmlns="http://www.w3.org/2000/svg">
<g clip-path="url(#clip0_291_86)">
<path d="M196.463 158.132L121.812 157.412L99.2239 157.304H93.0683H91.4693C91.2883 157.293 91.1068 157.293 90.9258 157.304C91.1054 157.334 91.2874 157.346 91.4693 157.342L93.0683 157.38L99.2176 157.456L121.843 157.583L196.495 157.627C225.637 157.627 252.023 157.665 271.122 157.804C280.671 157.873 288.4 157.962 293.741 158.069C296.414 158.12 298.487 158.17 299.89 158.227C300.61 158.211 301.33 158.267 302.039 158.392C301.329 158.506 300.609 158.552 299.89 158.531C298.487 158.568 296.408 158.606 293.741 158.625C288.394 158.676 280.665 158.689 271.115 158.625C251.985 158.663 225.624 158.436 196.463 158.132Z" fill="#EBEBEB"/>
<path d="M195.882 164.712L122.254 152.394L99.9192 148.772L93.8393 147.831L92.2593 147.61C92.0803 147.574 91.8984 147.555 91.7158 147.553C91.8889 147.608 92.0666 147.648 92.2467 147.673L93.8204 147.964L99.8813 148.994L122.21 152.634L195.952 164.275C224.739 168.794 250.797 172.934 269.643 176.037C279.066 177.592 286.707 178.881 291.946 179.829C294.581 180.297 296.617 180.67 298.001 180.941C298.712 181.044 299.412 181.211 300.093 181.441C299.374 181.446 298.657 181.382 297.95 181.251C296.553 181.068 294.499 180.783 291.858 180.391C286.574 179.608 278.933 178.42 269.504 176.909C250.645 173.869 224.619 169.54 195.882 164.712Z" fill="#EBEBEB"/>
<path d="M194.277 171.114L123.493 147.357L102.005 140.26L96.1525 138.364L94.623 137.89C94.4492 137.832 94.2719 137.786 94.0922 137.751C94.2541 137.835 94.4233 137.905 94.5978 137.959L96.1082 138.49L101.935 140.468L123.423 147.578L194.41 170.684C222.123 179.678 247.207 187.868 265.333 193.904C274.389 196.919 281.714 199.396 286.764 201.147C289.292 202.019 291.238 202.714 292.559 203.201C293.248 203.41 293.914 203.685 294.55 204.022C293.84 203.914 293.141 203.738 292.464 203.498C291.112 203.1 289.127 202.493 286.58 201.69C281.486 200.085 274.13 197.709 265.054 194.738C246.91 188.791 221.895 180.411 194.277 171.114Z" fill="#EBEBEB"/>
<path d="M191.686 177.181L125.534 142.585L105.437 132.202L99.9508 129.414L98.5161 128.713C98.3569 128.624 98.1898 128.55 98.0168 128.492C98.1664 128.595 98.3226 128.688 98.4845 128.77L99.8876 129.535L105.329 132.397L125.42 142.832L191.888 176.827C217.838 190.099 241.323 202.107 258.248 210.917C266.723 215.341 273.567 218.918 278.276 221.44C280.633 222.704 282.453 223.696 283.679 224.385C284.324 224.7 284.938 225.075 285.512 225.504C284.829 225.285 284.169 225.002 283.54 224.657C282.276 224.025 280.38 223.14 278.017 221.946C273.239 219.557 266.344 216.055 257.856 211.682C240.887 202.916 217.496 190.706 191.686 177.181Z" fill="#EBEBEB"/>
<path d="M188.178 182.768L128.245 138.256L110.012 124.858L105.032 121.249L103.724 120.326C103.578 120.219 103.426 120.12 103.269 120.029C103.395 120.161 103.535 120.28 103.686 120.383L104.95 121.357L109.88 125.035L128.094 138.452L188.431 182.414C211.992 199.554 233.303 215.114 248.667 226.464C256.346 232.152 262.571 236.766 266.799 239.989C268.929 241.601 270.591 242.871 271.678 243.743C272.269 244.15 272.817 244.616 273.315 245.134C272.673 244.811 272.063 244.428 271.495 243.99C270.338 243.193 268.638 241.999 266.439 240.444C262.09 237.341 255.834 232.803 248.111 227.172C232.747 215.878 211.556 200.161 188.178 182.768Z" fill="#EBEBEB"/>
<path d="M183.836 187.742L131.557 134.452L115.656 118.38L111.295 114.038L110.145 112.926C110.02 112.793 109.885 112.67 109.74 112.559C109.848 112.706 109.969 112.844 110.101 112.97L111.2 114.126L115.498 118.55L131.386 134.616C144.905 148.141 163.549 166.81 184.152 187.432C204.755 208.054 223.393 226.711 236.798 240.312C243.503 247.118 248.907 252.642 252.598 256.497C254.45 258.393 255.878 259.923 256.832 260.959C257.351 261.456 257.821 262.002 258.235 262.59C257.651 262.172 257.109 261.698 256.617 261.174C255.593 260.207 254.089 258.766 252.193 256.889C248.401 253.147 242.903 247.693 236.172 240.918C222.717 227.375 204.224 208.56 183.836 187.742Z" fill="#EBEBEB"/>
<path d="M178.78 191.976L135.425 131.197L122.197 112.869L118.563 107.901L117.603 106.637C117.501 106.485 117.385 106.343 117.255 106.214C117.344 106.374 117.443 106.528 117.552 106.675L118.462 107.99L122.014 113.008L135.248 131.342L179.159 191.717C196.312 215.272 211.815 236.589 222.938 252.149C228.506 259.91 232.981 266.211 236.039 270.591C237.575 272.777 238.751 274.49 239.534 275.647C239.966 276.219 240.343 276.83 240.659 277.473C240.147 276.97 239.685 276.417 239.282 275.823C238.422 274.711 237.177 273.055 235.584 270.907C232.424 266.615 227.836 260.377 222.243 252.635C211.025 237.177 195.686 215.708 178.78 191.976Z" fill="#EBEBEB"/>
<path d="M173.124 195.37C160.117 169.281 148.343 145.676 139.805 128.561L129.611 108.369L126.798 102.896L126.046 101.48C125.967 101.318 125.876 101.161 125.774 101.012C125.83 101.185 125.902 101.352 125.989 101.512L126.678 102.959C127.31 104.223 128.233 106.119 129.408 108.47L139.59 128.694L173.516 195.199C186.788 221.143 198.751 244.653 207.315 261.73C211.6 270.262 215.038 277.189 217.37 281.992C218.539 284.394 219.437 286.264 220.025 287.541C220.368 288.172 220.646 288.837 220.852 289.525C220.43 288.946 220.062 288.328 219.753 287.68C219.077 286.448 218.103 284.615 216.865 282.245C214.393 277.511 210.861 270.635 206.544 262.116C197.905 245.058 186.105 221.453 173.124 195.37Z" fill="#EBEBEB"/>
<path d="M167.006 197.816C158.259 170.008 150.353 144.842 144.614 126.596C141.707 117.514 139.356 110.164 137.719 105.051C136.891 102.523 136.247 100.564 135.823 99.205C135.602 98.573 135.431 98.0548 135.305 97.6945C135.253 97.5191 135.187 97.3479 135.109 97.1826C135.135 97.3636 135.18 97.5414 135.242 97.7135L135.697 99.2493L137.523 105.121L144.399 126.672L167.442 197.683C176.461 225.39 184.582 250.493 190.358 268.701C193.24 277.802 195.547 285.184 197.096 290.297C197.873 292.825 198.461 294.841 198.846 296.193C199.08 296.873 199.249 297.573 199.352 298.285C199.018 297.648 198.749 296.979 198.549 296.288C198.075 294.967 197.405 293.001 196.552 290.467C194.858 285.411 192.457 278.055 189.53 268.979C183.659 250.803 175.696 225.624 167.006 197.816Z" fill="#EBEBEB"/>
<path d="M160.572 199.307L149.664 125.452C148.223 116.022 147.06 108.388 146.251 103.092C145.828 100.469 145.499 98.4275 145.278 97.0181L145.006 95.4381C144.982 95.258 144.942 95.0803 144.886 94.9072C144.892 95.0893 144.909 95.2708 144.937 95.4507C144.987 95.8236 145.057 96.3545 145.145 97.0371C145.354 98.4464 145.644 100.494 146.024 103.123C146.833 108.426 147.989 116.06 149.424 125.49C152.394 144.38 156.483 170.444 161.008 199.238C165.533 228.032 169.622 254.064 172.46 272.98C173.876 282.422 174.988 290.075 175.721 295.365C176.082 298.013 176.353 300.067 176.518 301.464C176.642 302.173 176.699 302.893 176.688 303.613C176.465 302.93 176.306 302.227 176.214 301.514C175.955 300.13 175.582 298.089 175.159 295.453C174.28 290.183 173.061 282.548 171.607 273.112C168.681 254.234 164.807 228.152 160.572 199.307Z" fill="#EBEBEB"/>
<path d="M153.987 199.756C154.252 170.602 154.486 144.222 154.663 125.104C154.701 115.561 154.733 107.844 154.758 102.479C154.758 99.8244 154.758 97.7578 154.758 96.3295C154.758 95.6406 154.758 95.1097 154.758 94.7305C154.765 94.5466 154.754 94.3625 154.726 94.1807C154.706 94.3633 154.696 94.5468 154.695 94.7305C154.695 95.1097 154.695 95.6406 154.657 96.3295C154.657 97.7578 154.612 99.8244 154.581 102.479C154.581 107.838 154.518 115.561 154.473 125.104V199.756C154.473 228.891 154.473 255.277 154.341 274.377C154.277 283.932 154.195 291.662 154.094 297.002C154.044 299.669 153.993 301.742 153.936 303.151C153.951 303.869 153.898 304.586 153.778 305.294C153.659 304.586 153.611 303.869 153.633 303.151C153.595 301.742 153.557 299.669 153.532 296.996C153.481 291.655 153.469 283.926 153.487 274.377C153.487 255.271 153.702 228.891 153.987 199.756Z" fill="#EBEBEB"/>
<path d="M147.408 199.174C152.198 170.418 156.534 144.399 159.681 125.54C161.198 116.123 162.43 108.476 163.29 103.205C163.694 100.576 164.004 98.5348 164.225 97.1254C164.32 96.4429 164.396 95.9183 164.446 95.5391C164.483 95.3602 164.502 95.1782 164.503 94.9956C164.445 95.1679 164.405 95.3458 164.383 95.5265L164.093 97.1065C163.859 98.5095 163.511 100.551 163.062 103.167C162.203 108.464 160.97 116.085 159.441 125.496C156.471 144.386 152.375 170.45 147.844 199.25C143.312 228.051 139.223 254.095 136.127 272.948C134.578 282.371 133.295 290.012 132.366 295.251C131.898 297.88 131.526 299.922 131.254 301.306C131.155 302.017 130.99 302.717 130.761 303.398C130.752 302.679 130.815 301.961 130.95 301.255C131.127 299.858 131.412 297.804 131.804 295.163C132.581 289.879 133.763 282.238 135.273 272.809C138.282 253.944 142.598 227.912 147.408 199.174Z" fill="#EBEBEB"/>
<path d="M141.006 197.576L164.718 126.792C167.708 117.729 170.122 110.398 171.797 105.304C172.612 102.776 173.244 100.804 173.693 99.4454L174.167 97.9159C174.228 97.7458 174.272 97.5701 174.299 97.3914C174.221 97.5553 174.153 97.7242 174.097 97.8969L173.566 99.4074C173.111 100.76 172.448 102.713 171.594 105.228C169.913 110.322 167.493 117.653 164.497 126.716L141.423 197.715C132.448 225.435 124.276 250.525 118.247 268.651C115.239 277.714 112.768 285.038 111.017 290.088C110.145 292.616 109.456 294.569 108.969 295.884C108.762 296.573 108.487 297.24 108.148 297.874C108.266 297.159 108.452 296.456 108.704 295.776C109.096 294.424 109.703 292.439 110.505 289.892C112.104 284.798 114.48 277.442 117.457 268.36C123.36 250.222 131.728 225.194 141.006 197.576Z" fill="#EBEBEB"/>
<path d="M134.932 194.991C148.425 169.148 160.642 145.764 169.49 128.814L179.861 108.704L182.642 103.212L183.349 101.777C183.433 101.615 183.507 101.448 183.571 101.278C183.463 101.425 183.368 101.582 183.286 101.746L182.528 103.155C181.864 104.419 180.897 106.245 179.665 108.596L169.275 128.694L135.324 195.18C122.09 221.143 110.044 244.634 101.272 261.585C96.8476 270.06 93.2768 276.904 90.7615 281.619C89.4975 283.976 88.5116 285.797 87.8227 287.023C87.5064 287.668 87.132 288.284 86.704 288.862C86.9203 288.176 87.2039 287.513 87.5509 286.884C88.1829 285.62 89.0677 283.724 90.2559 281.36C92.6448 276.576 96.1461 269.687 100.507 261.193C109.235 244.205 121.426 220.808 134.932 194.991Z" fill="#EBEBEB"/>
<path d="M129.345 191.496L173.8 131.519L187.192 113.286C188.747 111.131 189.954 109.456 190.795 108.299L191.717 106.991C191.825 106.845 191.924 106.693 192.014 106.536C191.882 106.662 191.763 106.802 191.66 106.953C191.433 107.257 191.111 107.674 190.687 108.217L187.009 113.147L173.61 131.374C162.355 146.832 146.833 168.162 129.68 191.736C112.528 215.31 97.0121 236.608 85.6677 251.997C79.9797 259.682 75.3787 265.901 72.1555 270.142C70.5439 272.272 69.2799 273.934 68.4077 275.021C67.9958 275.608 67.5304 276.156 67.0173 276.658C67.3366 276.014 67.7198 275.404 68.1613 274.838C68.9576 273.681 70.1457 271.981 71.7005 269.782C74.7973 265.434 79.335 259.17 84.9725 251.454C96.2663 236.077 111.971 214.88 129.345 191.496Z" fill="#EBEBEB"/>
<path d="M124.371 187.148L177.63 134.831L193.695 118.898L198.031 114.537L199.143 113.387C199.276 113.264 199.396 113.128 199.503 112.983C199.36 113.092 199.224 113.213 199.099 113.343L197.936 114.449L193.512 118.74L177.44 134.667L124.656 187.458C104.071 208.08 85.4022 226.724 71.8078 240.141C65.0075 246.853 59.4838 252.257 55.635 255.941C53.739 257.799 52.2095 259.227 51.173 260.182C50.6757 260.701 50.1296 261.17 49.5425 261.585C49.9628 261.002 50.4368 260.461 50.9582 259.967C51.9251 258.943 53.3661 257.439 55.2368 255.543C58.9782 251.751 64.4324 246.253 71.2011 239.509C84.7638 226.054 103.572 207.549 124.371 187.148Z" fill="#EBEBEB"/>
<path d="M120.137 182.091L180.885 138.698L199.213 125.426L204.174 121.792L205.438 120.832C205.586 120.727 205.725 120.611 205.855 120.484C205.693 120.568 205.539 120.665 205.394 120.775L204.136 121.717L199.08 125.275L180.752 138.502L120.402 182.445C96.8603 199.617 75.5303 215.132 60.0021 226.268C52.2475 231.843 45.9464 236.323 41.5667 239.382C39.3799 240.912 37.6735 242.094 36.5107 242.877C35.9381 243.313 35.3242 243.692 34.6779 244.009C35.1811 243.496 35.7336 243.035 36.3274 242.631C37.4397 241.765 39.1019 240.52 41.2443 238.921C45.5293 235.761 51.7735 231.173 59.5028 225.573C74.9552 214.361 96.4116 199.01 120.137 182.091Z" fill="#EBEBEB"/>
<path d="M116.737 176.435L183.52 143.078L203.713 132.872L209.179 130.053L210.595 129.301C210.757 129.222 210.914 129.131 211.063 129.029C210.89 129.086 210.723 129.158 210.563 129.244L209.123 129.939L203.611 132.669L183.387 142.864L116.92 176.834C91.008 190.106 67.4787 202.114 50.4147 210.671C41.8827 214.962 34.956 218.4 30.1528 220.739C27.7512 221.914 25.8804 222.805 24.6038 223.399C23.971 223.74 23.3063 224.017 22.6193 224.227C23.2041 223.796 23.8258 223.417 24.4774 223.096C25.7414 222.42 27.5426 221.446 29.9126 220.208C34.6463 217.73 41.5224 214.197 50.0355 209.874C67.0679 201.248 90.6605 189.436 116.737 176.435Z" fill="#EBEBEB"/>
<path d="M114.266 170.317L185.473 147.888L207.012 140.986L212.858 139.09L214.368 138.572C214.544 138.52 214.716 138.453 214.88 138.37C214.7 138.405 214.523 138.452 214.349 138.509L212.82 138.964L206.942 140.79L185.397 147.679L114.392 170.741C86.6914 179.772 61.5947 187.912 43.3931 193.695C34.286 196.59 26.9106 198.897 21.7977 200.451C19.2697 201.229 17.2536 201.823 15.9011 202.202C15.2238 202.444 14.5225 202.614 13.8092 202.707C14.4471 202.382 15.1135 202.115 15.8 201.911C17.1272 201.437 19.0864 200.761 21.6207 199.908C26.6767 198.208 34.0269 195.8 43.1087 192.867C61.304 187.002 86.4702 179.058 114.266 170.317Z" fill="#EBEBEB"/>
<path d="M112.793 163.89L186.636 152.944L209.002 149.512L215.07 148.533L216.65 148.261C216.829 148.236 217.006 148.198 217.18 148.147C216.998 148.143 216.816 148.158 216.637 148.191L215.051 148.406L208.964 149.285L186.604 152.704L112.856 164.32C84.056 168.883 58.0112 172.972 39.1271 175.822C29.685 177.244 22.0631 178.35 16.7416 179.096C14.0936 179.463 12.0396 179.728 10.6428 179.899C9.93363 180.024 9.21411 180.081 8.49405 180.069C9.17731 179.847 9.87973 179.688 10.5923 179.595C11.9764 179.336 14.0177 178.963 16.6532 178.534C21.924 177.649 29.5586 176.429 38.9944 174.969C57.8722 172.037 83.9675 168.143 112.793 163.89Z" fill="#EBEBEB"/>
<path d="M112.338 157.305L186.99 157.937L209.615 158.019H215.765H217.364C217.547 158.032 217.731 158.032 217.914 158.019C217.732 157.99 217.548 157.977 217.364 157.981L215.765 157.949L209.615 157.88L186.99 157.785L112.338 157.829C83.2028 157.867 56.8168 157.861 37.7178 157.741C28.1619 157.684 20.4326 157.608 15.0922 157.507C12.4251 157.463 10.3458 157.412 8.9428 157.355C8.22525 157.371 7.50785 157.318 6.80032 157.197C7.50844 157.083 8.22568 157.034 8.9428 157.052C10.3522 157.014 12.4251 156.976 15.0985 156.951C20.4389 156.894 28.1682 156.875 37.7178 156.888C56.8168 156.837 83.2028 157.039 112.338 157.305Z" fill="#EBEBEB"/>
<path d="M112.913 150.725L186.56 162.948L208.895 166.544L214.975 167.473L216.561 167.701C216.74 167.734 216.922 167.751 217.105 167.752C216.929 167.698 216.749 167.658 216.567 167.631L214.994 167.347L208.933 166.317L186.598 162.708L112.844 151.162C84.0497 146.674 57.986 142.573 39.1397 139.488C29.7103 137.953 22.0757 136.67 16.8238 135.741C14.1947 135.279 12.1533 134.906 10.7756 134.635C10.064 134.538 9.36344 134.373 8.68365 134.142C9.40238 134.132 10.1202 134.196 10.8261 134.331C12.2229 134.508 14.2769 134.793 16.9186 135.178C22.2021 135.956 29.843 137.137 39.2725 138.635C58.144 141.637 84.1697 145.935 112.913 150.725Z" fill="#EBEBEB"/>
<path d="M114.512 144.317L185.296 167.992L206.784 175.058L212.643 176.954L214.172 177.421C214.343 177.482 214.518 177.529 214.697 177.56C214.536 177.475 214.366 177.407 214.191 177.358L212.681 176.827L206.854 174.855L185.366 167.771L114.392 144.728C86.6661 135.766 61.5694 127.613 43.4437 121.597C34.3745 118.595 27.0496 116.124 21.9999 114.379C19.4719 113.507 17.519 112.818 16.1981 112.332C15.5107 112.122 14.8442 111.849 14.2073 111.516C14.9181 111.619 15.6167 111.793 16.2929 112.035C17.6454 112.433 19.6299 113.039 22.1769 113.836C27.2771 115.435 34.6336 117.798 43.7154 120.788C61.8538 126.71 86.881 135.058 114.512 144.317Z" fill="#EBEBEB"/>
<path d="M117.091 138.25L183.28 172.763L203.39 183.122L208.876 185.896L210.317 186.604C210.479 186.688 210.646 186.762 210.816 186.825C210.666 186.719 210.507 186.624 210.342 186.541L208.939 185.783L203.504 182.92L183.4 172.536L116.92 138.635C90.9511 125.42 67.4534 113.419 50.4968 104.628C42.0154 100.204 35.1645 96.6453 30.4561 94.13C28.0987 92.866 26.2722 91.8801 25.0462 91.1975C24.4015 90.8792 23.7861 90.5049 23.207 90.0789C23.8941 90.2914 24.5571 90.5752 25.1852 90.9257C26.4492 91.5261 28.3452 92.4362 30.7152 93.6307C35.4931 96.007 42.3882 99.502 50.8886 103.863C67.8578 112.578 91.2671 124.757 117.091 138.25Z" fill="#EBEBEB"/>
<path d="M120.598 132.657L180.588 177.093L198.827 190.472L203.82 194.068L205.122 194.991C205.267 195.103 205.421 195.202 205.583 195.288C205.453 195.162 205.314 195.045 205.166 194.94L203.902 193.967L198.966 190.289L180.752 176.903L120.364 133.011C96.7782 115.902 75.4482 100.374 60.0716 89.0361C52.3802 83.3481 46.1676 78.7598 41.9206 75.5366C39.7907 73.925 38.1286 72.661 37.0352 71.7888C36.4441 71.3817 35.8957 70.9159 35.3983 70.3984C36.0401 70.7208 36.6496 71.1039 37.2185 71.5424C38.3814 72.3387 40.0814 73.5268 42.2745 75.0816C46.6226 78.1784 52.8858 82.7098 60.6025 88.3536C75.979 99.6095 97.1953 115.296 120.598 132.657Z" fill="#EBEBEB"/>
<path d="M124.927 127.664L177.276 180.884L193.215 196.937L197.582 201.273L198.732 202.385C198.858 202.519 198.996 202.642 199.143 202.752C199.037 202.603 198.916 202.466 198.783 202.341L197.677 201.184L193.373 196.76L177.447 180.752L124.618 128.005C103.983 107.44 85.32 88.7642 71.9027 75.2078C65.1845 68.4138 59.7809 62.8901 56.1027 59.0412C54.2446 57.1452 52.8163 55.6158 51.862 54.5856C51.3409 54.0904 50.8709 53.5442 50.4589 52.9551C51.0294 53.371 51.5605 53.8385 52.0452 54.3518C53.0691 55.3188 54.5732 56.7597 56.4692 58.6241C60.2612 62.3656 65.766 67.8134 72.5094 74.5821C85.9963 88.0943 104.514 106.89 124.927 127.664Z" fill="#EBEBEB"/>
<path d="M129.983 123.442L173.414 184.158L186.686 202.486L190.327 207.441L191.287 208.705C191.392 208.856 191.508 208.997 191.635 209.129C191.553 208.966 191.456 208.811 191.344 208.667L190.434 207.353L186.87 202.341L173.629 184.013C162.367 168.561 146.826 147.243 129.648 123.689C112.471 100.134 96.9362 78.8167 85.7877 63.3201C80.1882 55.5717 75.7073 49.296 72.6421 44.872C71.1063 42.6853 69.9245 40.9789 69.1408 39.816C68.7107 39.2417 68.3321 38.6305 68.0095 37.9895C68.5231 38.4933 68.9866 39.0458 69.3936 39.639C70.2531 40.745 71.5045 42.4009 73.0971 44.5497C76.2571 48.8346 80.8518 55.0661 86.4639 62.8018C97.6819 78.2795 113.046 99.7296 129.983 123.442Z" fill="#EBEBEB"/>
<path d="M135.634 120.036C148.678 146.112 160.477 169.704 169.035 186.8L179.254 206.986L182.079 212.453L182.825 213.862C182.905 214.027 182.998 214.186 183.103 214.336C183.047 214.163 182.975 213.996 182.888 213.837C182.724 213.489 182.49 213.015 182.193 212.39L179.488 206.885C177.074 202.094 173.585 195.206 169.281 186.661L135.248 120.238C121.976 94.3258 109.968 70.809 101.36 53.7514C97.0689 45.2194 93.6245 38.299 91.2482 33.5274C90.079 31.1258 89.1815 29.255 88.5874 27.9784C88.2458 27.3485 87.9684 26.6857 87.7595 26.0002C88.1916 26.5665 88.5703 27.1716 88.8908 27.8078C89.567 29.0718 90.5403 30.873 91.779 33.243C94.2628 37.9703 97.7957 44.8465 102.131 53.3595C110.79 70.3793 122.608 93.9718 135.634 120.036Z" fill="#EBEBEB"/>
<path d="M141.745 117.552C150.53 145.36 158.474 170.507 164.232 188.74C167.145 197.822 169.509 205.172 171.152 210.279C171.98 212.807 172.631 214.766 173.048 216.125C173.275 216.757 173.446 217.275 173.566 217.635C173.615 217.811 173.683 217.98 173.768 218.141C173.736 217.963 173.692 217.788 173.636 217.617C173.522 217.25 173.37 216.744 173.174 216.081L171.342 210.209C169.705 205.103 167.347 197.753 164.44 188.665C158.512 170.488 150.34 145.404 141.303 117.685C132.265 89.9652 124.093 64.9001 118.304 46.6985C115.403 37.5977 113.09 30.2222 111.529 25.1094C110.752 22.5814 110.158 20.5653 109.778 19.2128C109.542 18.5355 109.37 17.8371 109.266 17.1272C109.599 17.7626 109.868 18.4294 110.069 19.118C110.549 20.4452 111.219 22.4044 112.073 24.9387C113.779 29.9947 116.193 37.3449 119.126 46.4267C125.029 64.622 132.998 89.7756 141.745 117.552Z" fill="#EBEBEB"/>
<path d="M148.179 116.086C152.476 144.917 156.363 171.013 159.182 189.922C160.629 199.352 161.811 206.986 162.626 212.282L163.606 218.356C163.726 219.038 163.814 219.557 163.878 219.936C163.903 220.116 163.943 220.293 163.998 220.467C163.992 220.285 163.975 220.103 163.947 219.923C163.897 219.544 163.827 219.019 163.732 218.337C163.53 216.921 163.233 214.88 162.847 212.251C162.032 206.948 160.863 199.314 159.422 189.891C156.426 171 152.306 144.943 147.743 116.155C143.18 87.3676 139.04 61.3039 136.202 42.426C134.768 32.984 133.674 25.362 132.91 20.0469C132.543 17.3988 132.278 15.3448 132.107 13.9418C131.979 13.2351 131.919 12.5175 131.93 11.7993C132.158 12.4814 132.319 13.1842 132.41 13.8976C132.669 15.2816 133.042 17.323 133.472 19.9584C134.357 25.2293 135.583 32.8576 137.056 42.2933C140.001 61.1712 143.906 87.2601 148.179 116.086Z" fill="#EBEBEB"/>
<path d="M154.764 115.656C154.537 144.804 154.334 171.184 154.183 190.308C154.183 199.845 154.132 207.568 154.119 212.934C154.119 215.588 154.119 217.655 154.119 219.083C154.119 219.772 154.119 220.303 154.119 220.682C154.108 220.863 154.108 221.044 154.119 221.225C154.149 221.046 154.161 220.864 154.157 220.682C154.157 220.303 154.157 219.772 154.189 219.083C154.189 217.655 154.227 215.588 154.259 212.934C154.259 207.568 154.303 199.845 154.341 190.308C154.341 171.184 154.284 144.804 154.246 115.656C154.208 86.5082 154.176 60.1285 154.284 41.0295C154.334 31.48 154.41 23.7506 154.505 18.4102C154.549 15.7369 154.6 13.6639 154.65 12.2545C154.635 11.537 154.688 10.8196 154.808 10.1121C154.927 10.8218 154.976 11.5416 154.954 12.2609C154.998 13.6639 155.036 15.7369 155.061 18.4102C155.118 23.7506 155.15 31.48 155.137 41.0358C155.194 60.1096 155.011 86.4956 154.764 115.656Z" fill="#EBEBEB"/>
<path d="M161.343 116.199C156.584 144.962 152.312 170.987 149.152 189.853C147.642 199.269 146.422 206.917 145.575 212.194C145.17 214.817 144.861 216.858 144.646 218.274C144.551 218.956 144.475 219.481 144.425 219.854C144.393 220.033 144.374 220.215 144.368 220.397C144.427 220.225 144.468 220.047 144.488 219.866C144.56 219.496 144.654 218.971 144.772 218.293C145.012 216.883 145.354 214.848 145.796 212.225C146.649 206.936 147.875 199.307 149.392 189.891C152.337 171 156.401 144.93 160.895 116.13C165.388 87.3296 169.458 61.2659 172.536 42.4134C174.072 32.9902 175.348 25.3494 176.271 20.1038C176.733 17.4746 177.105 15.4333 177.371 14.0492C177.47 13.338 177.635 12.6377 177.864 11.9573C177.874 12.6757 177.812 13.3934 177.681 14.0998C177.504 15.4965 177.219 17.5505 176.834 20.1922C176.063 25.4821 174.887 33.1166 173.389 42.5524C170.4 61.4176 166.115 87.456 161.343 116.199Z" fill="#EBEBEB"/>
<path d="M167.752 117.792C158.525 145.442 150.176 170.47 144.128 188.608C141.151 197.671 138.743 205.008 137.075 210.096C136.266 212.624 135.634 214.596 135.179 215.955C134.976 216.618 134.825 217.124 134.711 217.484C134.653 217.658 134.607 217.835 134.572 218.015C134.656 217.853 134.723 217.684 134.774 217.509L135.305 215.999L137.27 210.172L144.343 188.684L167.309 117.653C176.252 89.9212 184.373 64.8244 190.396 46.686C193.392 37.6231 195.857 30.2919 197.595 25.2423C198.467 22.7143 199.156 20.7614 199.643 19.4405C199.847 18.7512 200.12 18.0842 200.458 17.4497C200.353 18.1608 200.178 18.8595 199.933 19.5353C199.541 20.8878 198.941 22.8723 198.138 25.4192C196.546 30.5195 194.188 37.8823 191.224 46.9641C185.321 65.0962 176.992 90.1613 167.752 117.792Z" fill="#EBEBEB"/>
<path d="M173.8 120.371L139.35 186.592L129.004 206.708L126.229 212.2L125.528 213.616C125.442 213.777 125.368 213.944 125.307 214.115C125.415 213.969 125.509 213.813 125.585 213.647L126.349 212.238C126.981 210.974 127.967 209.141 129.206 206.79L139.565 186.68C148.242 169.616 160.206 146.131 173.433 120.149C186.661 94.1679 198.619 70.6891 207.397 53.7199C211.79 45.2385 215.373 38.3876 217.882 33.6729C219.146 31.3155 220.132 29.489 220.814 28.2629C221.126 27.6144 221.5 26.9984 221.933 26.4238C221.715 27.1212 221.432 27.7963 221.086 28.4399C220.486 29.7039 219.576 31.5999 218.388 33.9699C216.011 38.7541 212.516 45.6493 208.162 54.1497C199.459 71.1189 187.293 94.5345 173.8 120.371Z" fill="#EBEBEB"/>
<path d="M179.418 123.872L135.014 183.912L121.654 202.164L118.058 207.157L117.135 208.465C117.027 208.611 116.928 208.763 116.838 208.92C116.969 208.794 117.085 208.654 117.185 208.503L118.159 207.239L121.831 202.303C124.991 197.98 129.573 191.755 135.21 184.057L179.058 123.644C196.154 100.045 211.669 78.7026 222.995 63.3261C228.683 55.6283 233.265 49.4221 236.488 45.1624C238.093 43.0325 239.357 41.3704 240.23 40.277C240.637 39.6859 241.102 39.1375 241.62 38.6401C241.297 39.2776 240.914 39.8828 240.476 40.4477C239.68 41.6105 238.492 43.3106 236.943 45.5037C233.846 49.8581 229.321 56.1213 223.671 63.8317C212.434 79.2335 196.761 100.488 179.418 123.872Z" fill="#EBEBEB"/>
<path d="M184.392 128.201L131.203 180.581L115.157 196.552C113.261 198.448 111.832 199.908 110.828 200.919C110.354 201.418 109.981 201.798 109.715 202.069C109.584 202.196 109.463 202.333 109.355 202.48C109.5 202.37 109.637 202.249 109.766 202.12L110.922 201.014L115.346 196.71L131.368 180.752L184.083 127.885C204.642 107.238 223.267 88.5684 236.867 75.1384C243.655 68.4202 249.172 63.004 253.021 59.2942C254.917 57.4424 256.44 56.0078 257.445 55.0534C257.956 54.5319 258.517 54.0619 259.12 53.6504C258.702 54.2347 258.228 54.7766 257.704 55.2683C256.744 56.2921 255.303 57.7963 253.438 59.6923C249.697 63.4843 244.255 68.9953 237.493 75.7388C223.956 89.2446 205.173 107.769 184.392 128.201Z" fill="#EBEBEB"/>
<path d="M188.639 133.251L127.967 176.72L109.639 189.992L104.678 193.638L103.414 194.599C103.264 194.703 103.122 194.819 102.991 194.947C103.152 194.862 103.306 194.765 103.452 194.656L104.767 193.739L109.778 190.175L128.106 176.903C143.546 165.622 164.857 150.068 188.399 132.878C211.941 115.687 233.24 100.14 248.743 88.9791C256.478 83.4238 262.773 78.924 267.146 75.8398C269.333 74.3041 271.04 73.1222 272.202 72.3386C272.775 71.9026 273.389 71.5237 274.035 71.2073C273.532 71.7196 272.979 72.1811 272.386 72.585C271.273 73.4509 269.618 74.7022 267.475 76.2949C263.19 79.4549 256.959 84.0622 249.229 89.6743C233.777 100.918 212.352 116.288 188.639 133.251Z" fill="#EBEBEB"/>
<path d="M192.046 138.901L125.3 172.34L105.127 182.578L99.66 185.403L98.2507 186.155C98.0859 186.234 97.9275 186.325 97.7767 186.427C97.9495 186.371 98.1167 186.299 98.2759 186.212L99.7169 185.517L105.228 182.78L125.408 172.536L191.844 138.477C217.756 125.167 241.253 113.153 258.311 104.552C266.837 100.254 273.757 96.8032 278.535 94.4395C280.937 93.264 282.807 92.3666 284.084 91.7725C284.717 91.4322 285.381 91.1549 286.068 90.9446C285.487 91.3664 284.869 91.7365 284.223 92.0506C282.991 92.7268 281.158 93.7064 278.794 94.9451C274.067 97.4289 267.191 100.974 258.684 105.304C241.683 114.025 218.103 125.863 192.046 138.901Z" fill="#EBEBEB"/>
<path d="M194.523 145.012L123.347 167.537L101.815 174.489L95.9692 176.416L94.4587 176.934C94.2834 176.983 94.1139 177.051 93.9531 177.137C94.1304 177.1 94.3055 177.054 94.4777 176.998L96.0134 176.543L101.885 174.704L123.423 167.752L194.384 144.576C222.078 135.507 247.163 127.335 265.364 121.527C274.459 118.62 281.834 116.307 286.941 114.739C289.5 113.962 291.485 113.368 292.837 112.982C293.515 112.74 294.216 112.57 294.929 112.477C294.29 112.805 293.621 113.074 292.932 113.279C291.611 113.753 289.646 114.43 287.118 115.283C282.062 116.996 274.711 119.41 265.63 122.355C247.453 128.258 222.306 136.24 194.523 145.012Z" fill="#EBEBEB"/>
<path d="M196.002 151.44L122.172 162.493L99.8181 165.95L93.7445 166.936L92.1645 167.208C91.9846 167.233 91.807 167.274 91.6337 167.328C91.8157 167.322 91.9972 167.306 92.1772 167.278L93.7635 167.063L99.8497 166.172L122.21 162.727L195.92 151.004C224.689 146.409 250.752 142.288 269.636 139.413C279.079 137.978 286.7 136.853 292.016 136.114C294.664 135.741 296.718 135.482 298.114 135.305C298.821 135.176 299.539 135.117 300.257 135.128C299.576 135.353 298.876 135.513 298.165 135.608C296.781 135.867 294.74 136.24 292.104 136.676C286.833 137.561 279.205 138.793 269.769 140.272C250.904 143.224 224.821 147.155 196.002 151.44Z" fill="#EBEBEB"/>
<path d="M225.908 45.7317L226.572 46.8314C227.315 48.0696 228.399 49.0678 229.694 49.707L230.851 50.2758L229.745 50.9078C228.513 51.6678 227.523 52.7613 226.888 54.0615L226.319 55.218L225.624 54.112C224.881 52.8775 223.8 51.8818 222.508 51.2427L221.352 50.6676L222.451 50.0356C223.689 49.2946 224.687 48.2129 225.327 46.9198L225.908 45.7317Z" fill="#E0E0E0"/>
<path d="M224.537 174.994L224.941 175.671C225.393 176.425 226.051 177.035 226.837 177.428L227.545 177.775L226.869 178.186C226.113 178.636 225.503 179.294 225.112 180.082L224.764 180.783L224.36 180.12C223.909 179.364 223.251 178.752 222.464 178.357L221.762 178.009L222.432 177.605C223.189 177.153 223.8 176.495 224.196 175.709L224.537 174.994Z" fill="#E0E0E0"/>
<path d="M290.353 246.24L290.758 246.91C291.208 247.666 291.866 248.276 292.654 248.667L293.355 249.021L292.686 249.425C291.931 249.877 291.322 250.535 290.929 251.321L290.575 252.029L290.17 251.353C289.718 250.598 289.061 249.989 288.274 249.596L287.573 249.242L288.243 248.837C288.997 248.386 289.606 247.728 290 246.941L290.353 246.24Z" fill="#E0E0E0"/>
<path d="M35.4236 211.72L35.8281 212.39C36.2797 213.144 36.9376 213.754 37.7241 214.147L38.4256 214.501L37.7557 214.905C36.9997 215.355 36.3897 216.013 35.9987 216.801L35.6448 217.503L35.2403 216.833C34.7886 216.078 34.1308 215.469 33.3443 215.076L32.6365 214.722L33.3127 214.317C34.0671 213.866 34.6767 213.208 35.0697 212.421L35.4236 211.72Z" fill="#E0E0E0"/>
<path d="M114.796 23.3271L115.201 24.0034C115.654 24.7564 116.312 25.3656 117.097 25.7603L117.798 26.1079L117.129 26.5124C116.374 26.9641 115.765 27.6219 115.372 28.4084L115.024 29.1289L114.626 28.44C114.173 27.687 113.515 27.0778 112.73 26.6831L112.028 26.3355L112.698 25.931C113.453 25.4793 114.062 24.8215 114.455 24.035L114.796 23.3271Z" fill="#E0E0E0"/>
<path d="M49.928 29.9502L50.3325 30.6264C50.7842 31.3808 51.442 31.9904 52.2285 32.3834L52.9363 32.7373L52.2601 33.1418C51.5071 33.5951 50.8979 34.2525 50.5031 35.0378L50.1555 35.7393L49.7511 35.0694C49.3013 34.3135 48.643 33.7034 47.8551 33.3124L47.1472 32.9585L47.8235 32.554C48.5778 32.1024 49.1874 31.4445 49.5804 30.658L49.928 29.9502Z" fill="#E0E0E0"/>
<path d="M80.1881 95.7859L80.5926 96.4558C81.0438 97.212 81.7016 97.8238 82.4886 98.2191L83.1964 98.5667L82.5202 98.9712C81.7658 99.4228 81.1562 100.081 80.7632 100.867L80.4093 101.575L80.0048 100.899C79.5531 100.144 78.8953 99.5348 78.1088 99.1418L77.4073 98.7942L78.0772 98.3834C78.8329 97.9334 79.4429 97.2751 79.8342 96.4874L80.1881 95.7859Z" fill="#E0E0E0"/>
<path d="M230.415 114.189L230.825 114.859C231.275 115.617 231.933 116.229 232.721 116.623L233.423 116.97L232.753 117.375C231.997 117.826 231.385 118.484 230.99 119.271L230.642 119.979L230.238 119.302C229.786 118.548 229.128 117.938 228.342 117.545L227.634 117.198L228.31 116.787C229.066 116.337 229.676 115.679 230.067 114.891L230.415 114.189Z" fill="#E0E0E0"/>
<path d="M224.537 247.864L224.941 248.54C225.393 249.295 226.051 249.904 226.837 250.297L227.545 250.645L226.869 251.056C226.113 251.506 225.503 252.164 225.112 252.952L224.764 253.653L224.354 252.983C223.902 252.227 223.245 251.615 222.458 251.22L221.756 250.872L222.426 250.468C223.182 250.017 223.794 249.359 224.189 248.572L224.537 247.864Z" fill="#E0E0E0"/>
<path d="M107.687 50.8125L108.502 52.1713C109.421 53.6975 110.759 54.928 112.357 55.7168L113.76 56.4247L112.401 57.2399C110.872 58.1558 109.641 59.4948 108.856 61.0951L108.148 62.5171L107.333 61.152C106.411 59.6272 105.074 58.3971 103.477 57.6065L102.074 56.8797L103.433 56.0581C104.962 55.1431 106.196 53.8069 106.985 52.2092L107.687 50.8125Z" fill="#E0E0E0"/>
<path d="M284.4 44.0439L285.215 45.4027C286.132 46.9304 287.468 48.1631 289.064 48.9546L290.492 49.6561L289.127 50.4714C287.603 51.3926 286.372 52.7301 285.582 54.3266L284.88 55.7486L284.059 54.3898C283.145 52.861 281.808 51.6296 280.21 50.8443L278.788 50.1364L280.128 49.2959C281.654 48.3763 282.884 47.0384 283.673 45.4407L284.4 44.0439Z" fill="#E0E0E0"/>
<path d="M209.369 22.8337L209.843 23.6174C210.373 24.5068 211.15 25.2226 212.08 25.6777L212.908 26.0885L212.118 26.5625C211.229 27.0926 210.513 27.8699 210.058 28.7998L209.647 29.6277L209.192 28.8377C208.662 27.9484 207.885 27.2325 206.955 26.7774L206.133 26.3666L206.917 25.8926C207.806 25.3626 208.522 24.5852 208.977 23.6553L209.369 22.8337Z" fill="#E0E0E0"/>
<path d="M47.4 183.457L48.1142 184.645C48.9177 185.982 50.0894 187.059 51.489 187.748L52.753 188.38L51.5586 189.094C50.2229 189.899 49.146 191.071 48.4554 192.469L47.8234 193.733L47.1093 192.539C46.3057 191.202 45.134 190.124 43.7344 189.436L42.4704 188.804L43.6649 188.083C45.0021 187.277 46.0793 186.103 46.768 184.702L47.4 183.457Z" fill="#E0E0E0"/>
<path d="M255.435 252.509L256.15 253.704C256.953 255.041 258.125 256.118 259.524 256.807L260.788 257.439L259.594 258.153C258.257 258.957 257.18 260.128 256.491 261.528L255.859 262.792L255.145 261.597C254.341 260.26 253.169 259.183 251.77 258.494L250.506 257.862L251.7 257.148C253.037 256.345 254.115 255.173 254.803 253.773L255.435 252.509Z" fill="#E0E0E0"/>
<path d="M249.64 190.504C249.596 189.837 249.394 189.19 249.05 188.618C248.706 188.045 248.23 187.563 247.662 187.211C230.035 175.551 216.757 149.702 215.43 127.803C215.396 126.539 215.358 125.275 215.316 124.011C214.299 92.727 209.691 54.7817 205.552 44.6634C197.911 25.9815 172.056 24.2245 172.056 24.2245C137.706 21.766 131.608 48.1647 128.106 72.206C125.951 87.1528 117.641 140.557 117.641 140.557L123.961 142.996C131.399 165.04 148.147 182.863 169.92 191.028C176.24 193.417 181.612 194.372 184.127 192.324C194.172 202.519 206.592 210.059 220.271 214.267C225.82 215.954 231.647 217.079 237.411 216.542C241.159 216.188 245.109 214.95 247.346 211.922C248.314 210.608 248.889 209.045 249.004 207.417C249.119 205.788 248.769 204.161 247.995 202.723C247.221 201.286 246.054 200.098 244.632 199.297C243.209 198.497 241.588 198.117 239.958 198.201C241.228 194.024 249.792 195.288 249.64 190.504Z" fill="#263238"/>
<g opacity="0.3">
<path d="M249.64 190.504C249.596 189.837 249.394 189.19 249.05 188.618C248.706 188.045 248.23 187.563 247.662 187.211C230.035 175.551 216.757 149.702 215.43 127.803C215.396 126.539 215.358 125.275 215.316 124.011C214.299 92.727 209.691 54.7817 205.552 44.6634C197.911 25.9815 172.056 24.2245 172.056 24.2245C137.706 21.766 131.608 48.1647 128.106 72.206C125.951 87.1528 117.641 140.557 117.641 140.557L123.961 142.996C131.399 165.04 148.147 182.863 169.92 191.028C176.24 193.417 181.612 194.372 184.127 192.324C194.172 202.519 206.592 210.059 220.271 214.267C225.82 215.954 231.647 217.079 237.411 216.542C241.159 216.188 245.109 214.95 247.346 211.922C248.314 210.608 248.889 209.045 249.004 207.417C249.119 205.788 248.769 204.161 247.995 202.723C247.221 201.286 246.054 200.098 244.632 199.297C243.209 198.497 241.588 198.117 239.958 198.201C241.228 194.024 249.792 195.288 249.64 190.504Z" fill="#263238"/>
</g>
<path d="M176.606 33.951L174.432 31.897L151.231 41.2569C149.611 41.3478 148.083 42.0425 146.949 43.2043C145.816 44.366 145.158 45.9103 145.107 47.5327L145.316 123.202C145.284 128.334 146.314 132.777 149.411 136.866L152.672 141.17C160.111 150.991 175.424 150.182 181.295 139.362C181.652 138.749 181.928 138.093 182.117 137.409C182.26 136.851 182.374 136.286 182.458 135.716C183.154 129.629 183.191 124.34 183.191 124.34C183.602 117.659 183.741 114.916 183.741 114.98C183.741 115.043 197.968 113.343 201.81 95.0843C203.706 86.0025 203.365 73.5142 202.828 61.2218C202.082 44.2399 190.283 33.932 176.606 33.951Z" fill="#FFBF9D"/>
<path d="M157.368 67.2258C157.913 67.1475 158.453 67.0378 158.986 66.8971C160.427 66.4594 161.746 65.6936 162.841 64.6599C163.601 63.9578 164.276 63.1687 164.851 62.3088C165.5 61.3124 166.048 60.2538 166.488 59.1488C167.425 56.5738 168.203 53.944 168.82 51.2741C169.578 48.4554 170.406 45.7883 171.31 43.4183C172.095 41.3104 173.04 39.2653 174.135 37.3006C174.87 35.9799 175.698 34.7127 176.612 33.5086C176.928 33.0788 177.206 32.7691 177.39 32.5479C177.474 32.4335 177.569 32.3277 177.674 32.2319C177.603 32.356 177.523 32.4743 177.434 32.5859C177.27 32.8134 177.004 33.1357 176.701 33.5781C175.827 34.8046 175.029 36.0836 174.312 37.408C173.253 39.3788 172.332 41.4209 171.556 43.5195C170.672 45.8895 169.856 48.5439 169.098 51.3626C168.479 54.0435 167.689 56.6822 166.734 59.2626C166.281 60.3813 165.717 61.4525 165.053 62.4605C164.458 63.3297 163.762 64.1252 162.98 64.8305C161.852 65.8674 160.494 66.6212 159.017 67.0299C158.48 67.1733 157.924 67.2392 157.368 67.2258Z" fill="#263238"/>
<path d="M171.841 71.4158C171.818 72.0322 171.554 72.615 171.106 73.0391C170.658 73.4633 170.062 73.6951 169.446 73.6847C169.144 73.694 168.844 73.6427 168.562 73.5339C168.281 73.4251 168.024 73.2609 167.807 73.0512C167.59 72.8414 167.418 72.5903 167.3 72.3126C167.182 72.035 167.121 71.7365 167.12 71.4348C167.146 70.8195 167.411 70.2386 167.858 69.8151C168.305 69.3916 168.899 69.1588 169.515 69.1659C169.816 69.1575 170.116 69.2094 170.397 69.3185C170.678 69.4276 170.935 69.5918 171.151 69.8014C171.368 70.011 171.541 70.2618 171.659 70.5391C171.777 70.8163 171.839 71.1144 171.841 71.4158Z" fill="#263238"/>
<path d="M195.85 72.0479C195.824 72.6626 195.559 73.2428 195.112 73.6653C194.665 74.0878 194.07 74.3192 193.455 74.3105C193.154 74.3198 192.853 74.2685 192.572 74.1597C192.29 74.0508 192.034 73.8867 191.817 73.6769C191.6 73.4671 191.428 73.216 191.309 72.9384C191.191 72.6607 191.13 72.3622 191.129 72.0605C191.153 71.4453 191.415 70.8635 191.862 70.4395C192.308 70.0155 192.903 69.783 193.518 69.7917C193.821 69.7832 194.121 69.8353 194.403 69.9447C194.685 70.0542 194.942 70.2188 195.159 70.429C195.376 70.6392 195.55 70.8907 195.668 71.1687C195.787 71.4467 195.849 71.7456 195.85 72.0479Z" fill="#263238"/>
<path d="M174.622 66.3602C174.287 66.6193 172.726 65.033 170.198 64.6538C167.67 64.2746 165.647 65.2479 165.42 64.8939C165.306 64.7423 165.685 64.2619 166.583 63.7753C167.786 63.1871 169.141 62.9862 170.463 63.2002C171.77 63.3997 172.98 64.0081 173.92 64.9382C174.603 65.646 174.786 66.2401 174.622 66.3602Z" fill="#263238"/>
<path d="M174.622 66.3602C174.287 66.6193 172.726 65.033 170.198 64.6538C167.67 64.2746 165.647 65.2479 165.42 64.8939C165.306 64.7423 165.685 64.2619 166.583 63.7753C167.786 63.1871 169.141 62.9862 170.463 63.2002C171.77 63.3997 172.98 64.0081 173.92 64.9382C174.603 65.646 174.786 66.2401 174.622 66.3602Z" fill="black" fill-opacity="0.2"/>
<path d="M200.395 66.0883C200.091 66.3791 198.366 64.9697 195.825 64.8243C193.285 64.679 191.363 65.8798 191.104 65.5512C190.971 65.4121 191.3 64.8686 192.141 64.2872C193.275 63.5824 194.599 63.2447 195.933 63.3202C197.255 63.3816 198.523 63.8619 199.554 64.6916C200.344 65.3868 200.546 65.9556 200.395 66.0883Z" fill="#263238"/>
<path d="M183.495 84.8399C183.495 84.6946 185.081 84.505 187.66 84.3027C188.292 84.3027 188.924 84.17 189.063 83.7339C189.202 83.2979 189 82.5584 188.721 81.7874L187.053 76.7314C184.74 69.5645 183.103 63.6869 183.394 63.5984C183.684 63.5099 185.789 69.2422 188.102 76.4027C188.658 78.1723 189.189 79.8535 189.688 81.4587C189.897 82.2045 190.283 83.064 189.897 84.0183C189.793 84.2431 189.638 84.4409 189.445 84.5965C189.252 84.7521 189.026 84.8614 188.785 84.9158C188.422 84.9965 188.05 85.0284 187.679 85.0106C185.094 85.0548 183.495 84.9853 183.495 84.8399Z" fill="#263238"/>
<path d="M182.111 90.9069C181.658 90.2758 181.052 89.7706 180.35 89.4389C179.648 89.1071 178.873 88.9598 178.098 89.0109C177.534 89.0323 176.981 89.1677 176.472 89.4089C175.962 89.65 175.507 89.9919 175.133 90.4139C174.773 90.8199 174.546 91.3266 174.483 91.8656C174.42 92.4047 174.523 92.9501 174.78 93.4285C175.412 94.4271 176.84 94.7241 178.066 94.4397C179.287 94.0754 180.424 93.4717 181.409 92.6638C181.705 92.4732 181.964 92.2314 182.174 91.9497C182.273 91.8131 182.33 91.6507 182.338 91.4823C182.345 91.3139 182.304 91.1468 182.218 91.0017" fill="#10B981"/>
<path d="M182.111 90.9069C181.658 90.2758 181.052 89.7706 180.35 89.4389C179.648 89.1071 178.873 88.9598 178.098 89.0109C177.534 89.0323 176.981 89.1677 176.472 89.4089C175.962 89.65 175.507 89.9919 175.133 90.4139C174.773 90.8199 174.546 91.3266 174.483 91.8656C174.42 92.4047 174.523 92.9501 174.78 93.4285C175.412 94.4271 176.84 94.7241 178.066 94.4397C179.287 94.0754 180.424 93.4717 181.409 92.6638C181.705 92.4732 181.964 92.2314 182.174 91.9497C182.273 91.8131 182.33 91.6507 182.338 91.4823C182.345 91.3139 182.304 91.1468 182.218 91.0017" fill="#FF9A6C"/>
<path d="M176.612 57.1709C176.113 57.7144 173.901 56.4251 171.013 55.5972C168.125 54.7693 165.584 54.5797 165.464 53.8529C165.413 53.5116 166.052 53.0755 167.208 52.8354C168.724 52.5832 170.278 52.6798 171.75 53.1178C173.223 53.5558 174.577 54.3238 175.709 55.3634C176.543 56.1976 176.84 56.9118 176.612 57.1709Z" fill="#263238"/>
<path d="M198.732 60.04C198.334 60.672 196.539 60.1917 194.435 60.3308C192.33 60.4698 190.586 61.0196 190.131 60.4508C189.929 60.1728 190.163 59.5787 190.896 58.972C191.889 58.2291 193.081 57.7997 194.319 57.7389C195.558 57.6781 196.787 57.9886 197.848 58.6307C198.619 59.1616 198.909 59.7367 198.732 60.04Z" fill="#263238"/>
<path d="M145.575 79.8279C145.575 79.8279 158.581 83.8727 165.944 51.7671C168.472 40.7893 178.641 31.8971 178.641 31.8971L174.508 30.6331C174.508 30.6331 148.855 37.8631 148.425 38.2171C147.995 38.571 141.954 51.4891 141.954 51.4891L145.575 79.8279Z" fill="#263238"/>
<path d="M148.779 78.6335C148.842 77.262 147.42 73.9504 146.08 73.6723C142.491 72.9265 135.968 72.8886 135.444 82.0652C134.73 94.6104 147.452 92.7397 147.515 92.3795C147.578 92.0192 148.552 83.3672 148.779 78.6335Z" fill="#FFBF9D"/>
<path d="M175.93 86.2238C176.347 86.2238 176.214 88.9794 178.458 91.0523C180.701 93.1253 183.665 92.9483 183.672 93.3591C183.672 93.5298 182.989 93.8584 181.776 93.8331C180.159 93.7751 178.615 93.1484 177.415 92.0635C176.266 91.021 175.566 89.5733 175.462 88.025C175.405 86.8622 175.747 86.1986 175.93 86.2238Z" fill="#10B981"/>
<path d="M175.93 86.2238C176.347 86.2238 176.214 88.9794 178.458 91.0523C180.702 93.1253 183.666 92.9483 183.672 93.3591C183.672 93.5298 182.989 93.8584 181.776 93.8331C180.159 93.7751 178.615 93.1484 177.415 92.0635C176.266 91.021 175.566 89.5733 175.462 88.025C175.405 86.8622 175.747 86.1986 175.93 86.2238Z" fill="#263238"/>
<path d="M274.471 87.033C274.471 87.033 291.238 120.769 294.063 127.86C296.528 133.997 310.154 162.747 305.939 170.722C301.723 178.698 297.988 178.306 292.117 178.603C286.245 178.9 248.054 177.339 238.15 176.941C225.554 176.417 211.695 172.84 211.695 172.84L218.192 138.276L268.682 147.667L260.15 92.8158L274.471 87.033Z" fill="#FFBF9D"/>
<path d="M274.566 87.2856C274.566 87.2856 271.659 82.1158 269.858 80.8771C268.056 79.6384 253.426 66.8088 253.426 66.8088C253.426 66.8088 247.687 60.729 246.107 61.0702C244.527 61.4115 229.555 71.4161 229.416 73.0024C229.277 74.5887 230.092 75.4735 230.996 75.701C231.9 75.9286 230.541 76.965 232.892 79.3034C232.892 79.3034 230.642 79.1897 230.756 81.3322C230.87 83.4746 230.756 86.3882 232.222 86.5082C233.688 86.6283 238.296 87.9745 238.542 85.497L238.991 84.4795C241.359 86.1502 243.887 87.5833 246.537 88.7582C250.139 90.2244 255.878 90.1106 255.878 90.1106C256.894 91.5392 258.43 92.5108 260.156 92.8156C262.874 93.1506 274.566 87.2856 274.566 87.2856Z" fill="#FFBF9D"/>
<g opacity="0.3">
<path d="M252.13 78.0396C252.08 78.0017 251.587 78.5705 251.346 79.7334C251.087 81.2417 251.322 82.7934 252.016 84.1574C252.707 85.4941 253.619 86.7037 254.715 87.7345C255.53 88.5245 256.08 88.9606 256.137 88.9037C256.194 88.8468 255.745 88.3096 255.012 87.4564C254.044 86.3797 253.214 85.1866 252.541 83.9046C251.901 82.6286 251.627 81.1999 251.751 79.7776C251.871 78.7032 252.219 78.0839 252.13 78.0396Z" fill="#FF9A6C"/>
</g>
<g opacity="0.3">
<path d="M245.216 81.0099C245.184 81.0099 245.216 81.1364 245.336 81.2564C245.536 81.4051 245.784 81.4728 246.031 81.446C246.407 81.398 246.77 81.2734 247.096 81.08C247.422 80.8865 247.705 80.6282 247.927 80.3211C248.391 79.7282 248.636 78.9941 248.623 78.2418C248.591 77.673 248.401 77.357 248.338 77.3823C248.275 77.4075 248.281 77.7299 248.212 78.2228C248.111 78.857 247.855 79.4564 247.466 79.9671C247.089 80.474 246.563 80.8498 245.962 81.0415C245.545 81.1679 245.304 80.9657 245.216 81.0099Z" fill="#FF9A6C"/>
</g>
<g opacity="0.3">
<path d="M250.853 66.6887C250.621 66.5998 250.371 66.5639 250.123 66.5836C249.875 66.6033 249.634 66.678 249.419 66.8024C248.894 67.0502 248.435 67.4183 248.079 67.8768C247.649 68.3951 247.276 69.0397 246.815 69.716C245.765 71.3139 244.63 72.854 243.415 74.3296C242.732 75.1638 241.986 76.017 241.184 76.8576C240.722 77.2965 240.344 77.8172 240.072 78.3933C239.944 78.7232 239.897 79.0788 239.934 79.4305C239.972 79.7822 240.092 80.12 240.286 80.4157C240.637 80.9553 241.063 81.4426 241.55 81.863C242.005 82.2738 242.46 82.672 242.922 83.0448C243.807 83.7845 244.749 84.4524 245.741 85.042C246.239 85.328 246.803 85.4824 247.377 85.4907C247.92 85.4734 248.449 85.3167 248.913 85.0356C249.727 84.567 250.405 83.8939 250.879 83.0828C251.08 82.7386 251.2 82.3534 251.231 81.956C251.261 81.5586 251.202 81.1595 251.056 80.7886C250.945 80.5054 250.761 80.2569 250.522 80.069C250.283 79.8812 249.998 79.7608 249.697 79.7205C249.324 79.6637 248.943 79.7543 248.635 79.9733C248.433 80.1313 248.382 80.2577 248.389 80.264C248.563 80.1212 248.766 80.0183 248.985 79.9626C249.203 79.907 249.431 79.8998 249.653 79.9417C249.904 79.9933 250.138 80.1105 250.33 80.2814C250.522 80.4523 250.666 80.6709 250.746 80.915C250.855 81.2395 250.89 81.5841 250.85 81.924C250.81 82.2639 250.694 82.5906 250.512 82.8805C250.05 83.6039 249.413 84.1994 248.66 84.6122C248.266 84.8467 247.817 84.9731 247.358 84.9788C246.873 84.9605 246.399 84.8215 245.981 84.5743C245.028 83.9868 244.122 83.3276 243.269 82.6024C242.821 82.2359 242.372 81.844 241.923 81.4332C241.489 81.0544 241.109 80.6186 240.792 80.1376C240.643 79.9176 240.549 79.6649 240.518 79.4009C240.487 79.1369 240.521 78.8693 240.615 78.6208C240.862 78.1124 241.198 77.6522 241.607 77.262C242.408 76.3899 243.151 75.5262 243.838 74.6708C245.047 73.1647 246.159 71.5836 247.169 69.9372C247.605 69.2356 247.953 68.5847 248.332 68.0791C248.643 67.6398 249.047 67.2732 249.514 67.0047C249.93 66.7965 250.388 66.6883 250.853 66.6887Z" fill="#FF9A6C"/>
</g>
<g opacity="0.3">
<path d="M248.205 77.4454C248.136 77.4833 248.205 77.7488 248.452 78.0774C248.797 78.5266 249.264 78.8667 249.798 79.057C250.329 79.2538 250.906 79.2954 251.46 79.1771C251.884 79.0696 252.092 78.899 252.092 78.8358C252.092 78.7726 251.087 78.918 250.019 78.5135C248.951 78.109 248.376 77.3569 248.205 77.4454Z" fill="#FF9A6C"/>
</g>
<g opacity="0.3">
<path d="M244.957 64.6599C244.636 64.922 244.348 65.2211 244.097 65.551C243.573 66.1451 242.833 67.0173 241.923 68.079L238.763 71.9216L236.905 74.2031C236.194 75.0081 235.559 75.8777 235.009 76.8006C234.704 77.2874 234.523 77.8416 234.482 78.4147C234.442 78.9877 234.542 79.562 234.775 80.087C235.314 80.96 236.042 81.7008 236.905 82.2548C238.416 83.3797 239.686 84.4605 240.937 85.2315C241.509 85.592 242.16 85.8089 242.833 85.8635C243.345 85.8825 243.851 85.7624 244.3 85.5159C245.033 85.0798 245.121 84.5426 245.096 84.5553C244.853 84.8702 244.544 85.1289 244.192 85.3137C243.773 85.5059 243.311 85.5844 242.852 85.5412C242.246 85.4657 241.666 85.2492 241.159 84.9092C240.015 84.1445 238.725 83.0132 237.246 81.863C236.462 81.3423 235.797 80.6617 235.294 79.8658C235.106 79.4204 235.03 78.9357 235.073 78.4542C235.116 77.9728 235.276 77.5092 235.54 77.104C236.07 76.2099 236.677 75.364 237.354 74.576L239.187 72.2755L242.258 68.3508C243.13 67.2322 243.826 66.3158 244.293 65.6774C244.557 65.368 244.78 65.0261 244.957 64.6599Z" fill="#FF9A6C"/>
</g>
<g opacity="0.3">
<path d="M240.078 65.8166C239.932 65.7155 238.093 68.5532 235.022 71.2771C234.265 71.9141 233.561 72.6116 232.917 73.3627C232.387 74.0019 231.995 74.7444 231.767 75.5431C231.4 76.9524 231.874 77.8183 231.925 77.774C231.881 77.0618 231.962 76.3473 232.165 75.6632C232.424 74.9403 232.821 74.2748 233.334 73.704C233.982 72.9939 234.676 72.3288 235.414 71.7132C236.749 70.5244 237.949 69.1911 238.991 67.7379C239.459 67.1632 239.826 66.5136 240.078 65.8166Z" fill="#FF9A6C"/>
</g>
<g opacity="0.3">
<path d="M233.006 81.8629C233.006 82.0652 234.662 81.8629 236.437 82.4633C237.189 82.7301 237.86 83.1823 238.39 83.7779C238.795 84.2393 238.953 84.6121 239.022 84.5805C239.092 84.5489 239.073 84.1255 238.713 83.5314C238.214 82.7791 237.481 82.2125 236.627 81.9198C235.797 81.6329 234.916 81.5273 234.042 81.6101C233.391 81.667 232.999 81.7871 233.006 81.8629Z" fill="#FF9A6C"/>
</g>
<path opacity="0.2" d="M231.698 176.435L237.417 141.846L241.329 142.573L236.817 176.871L231.698 176.435Z" fill="#FF9A6C"/>
<path d="M40.2584 73.5649C40.2584 73.5649 23.4914 107.307 20.6664 114.392C18.2016 120.529 4.57568 149.279 8.79112 157.254C13.0066 165.23 16.748 164.838 22.613 165.135C28.4779 165.432 66.676 163.871 76.5794 163.473C89.1815 162.949 103.035 159.372 103.035 159.372L96.538 124.807L46.0286 134.199L54.5542 79.3477L40.2584 73.5649Z" fill="#FFBF9D"/>
<path d="M40.1636 73.8176C40.1636 73.8176 43.0771 68.6541 44.8783 67.4154C46.6795 66.1767 61.304 53.3408 61.304 53.3408C61.304 53.3408 67.0425 47.2609 68.6225 47.6022C70.2025 47.9435 85.1746 57.9544 85.32 59.5344C85.4653 61.1144 84.6437 62.0118 83.7463 62.233C82.8488 62.4542 84.195 63.497 81.8503 65.8354C81.8503 65.8354 83.4366 65.7912 83.9865 67.8641C84.5363 69.9371 84.6185 71.8584 82.5265 73.0402C80.9339 73.9377 77.1419 74.8351 75.8147 71.1442L75.7705 71.0494C73.4035 72.7176 70.8781 74.1486 68.2307 75.3217C64.6283 76.788 58.8834 76.6742 58.8834 76.6742C57.8677 78.1028 56.3309 79.0744 54.6048 79.3792C51.8556 79.6825 40.1636 73.8176 40.1636 73.8176Z" fill="#FFBF9D"/>
<g opacity="0.3">
<path d="M62.5996 64.5714C62.6502 64.5334 63.1494 65.1022 63.3896 66.2651C63.6431 67.7742 63.4061 69.3247 62.7134 70.6891C62.0325 72.0307 61.1285 73.2467 60.04 74.2852C59.6354 74.7542 59.1547 75.1516 58.618 75.4607C58.5611 75.3975 59.0098 74.8287 59.743 74.0071C60.711 72.9304 61.5411 71.7373 62.2141 70.4553C62.8437 69.1875 63.1085 67.7695 62.9788 66.3599C62.865 65.235 62.5111 64.6156 62.5996 64.5714Z" fill="#FF9A6C"/>
</g>
<g opacity="0.3">
<path d="M69.52 67.5418C69.52 67.5418 69.52 67.6682 69.3936 67.7883C69.1937 67.9364 68.9463 68.0061 68.6984 67.9842C68.3229 67.9341 67.9614 67.8086 67.6356 67.6153C67.3098 67.422 67.0264 67.1648 66.8024 66.8593C66.3354 66.2656 66.0876 65.5289 66.1009 64.7737C66.1388 64.2049 66.3221 63.8952 66.3916 63.9142C66.4612 63.9331 66.4422 64.2618 66.5117 64.7547C66.6122 65.3889 66.8684 65.9882 67.2575 66.499C67.634 67.0058 68.1601 67.3816 68.7616 67.5734C69.1851 67.7062 69.4252 67.4976 69.52 67.5418Z" fill="#FF9A6C"/>
</g>
<g opacity="0.3">
<path d="M63.8826 53.2209C64.114 53.1317 64.3624 53.0956 64.6097 53.1153C64.8569 53.135 65.0965 53.21 65.3109 53.3347C65.8368 53.5809 66.2962 53.9492 66.6507 54.4091C67.0805 54.9273 67.4597 55.5783 67.9147 56.2545C68.9673 57.8503 70.1022 59.3903 71.3149 60.8681C71.9974 61.7024 72.7495 62.5493 73.5458 63.3961C74.0101 63.8333 74.3876 64.3544 74.6582 64.9319C74.7857 65.2629 74.8328 65.6194 74.7954 65.9722C74.758 66.3249 74.6373 66.6637 74.4433 66.9606C74.0925 67.4985 73.6669 67.9837 73.1793 68.4016C72.7242 68.8124 72.2629 69.2105 71.8015 69.5834C70.9166 70.3231 69.974 70.991 68.9828 71.5805C68.4861 71.8658 67.925 72.0202 67.3522 72.0293C66.8097 72.012 66.2808 71.8553 65.8165 71.5742C64.9991 71.1077 64.319 70.4342 63.8446 69.6214C63.6437 69.2783 63.5233 68.8942 63.4927 68.4978C63.462 68.1015 63.5219 67.7033 63.6677 67.3335C63.7776 67.0494 63.9617 66.8 64.2006 66.6111C64.4395 66.4221 64.7247 66.3006 65.0265 66.2591C65.3998 66.2023 65.7806 66.2929 66.0882 66.5119C66.2905 66.6699 66.3474 66.7963 66.3347 66.8026C66.159 66.6624 65.9552 66.5616 65.7371 66.5071C65.519 66.4525 65.2917 66.4456 65.0707 66.4866C64.8186 66.5352 64.5842 66.6506 64.3919 66.8207C64.1996 66.9908 64.0564 67.2093 63.9774 67.4536C63.8653 67.7776 63.8281 68.1228 63.8686 68.4632C63.9091 68.8036 64.0263 69.1304 64.2112 69.4191C64.6676 70.1451 65.3031 70.7414 66.0566 71.1508C66.4519 71.3837 66.8999 71.5121 67.3586 71.5237C67.8444 71.5009 68.3173 71.3598 68.7363 71.1129C69.6873 70.5255 70.5936 69.8685 71.4476 69.1474C71.8942 68.7724 72.3429 68.3805 72.7938 67.9718C73.2345 67.5945 73.6216 67.1586 73.944 66.6762C74.0946 66.4556 74.1894 66.2018 74.2202 65.9365C74.251 65.6712 74.217 65.4023 74.121 65.1531C73.8739 64.6446 73.5378 64.1844 73.1287 63.7943C72.3282 62.9221 71.5845 62.0584 70.8978 61.2031C69.6948 59.6947 68.5826 58.1162 67.5671 56.4757C67.131 55.7679 66.7834 55.1169 66.4042 54.5797C66.0956 54.1377 65.6918 53.7705 65.2224 53.5053C64.8038 53.3081 64.3452 53.2108 63.8826 53.2209Z" fill="#FF9A6C"/>
</g>
<g opacity="0.3">
<path d="M66.5306 63.9775C66.5938 64.0154 66.5306 64.2809 66.2841 64.6095C65.9321 65.0529 65.4638 65.3899 64.9316 65.5829C64.3993 65.7759 63.824 65.8175 63.2695 65.7029C62.8461 65.5954 62.6375 65.4311 62.6375 65.3616C62.6375 65.2921 63.6487 65.4437 64.7105 65.0393C65.7722 64.6348 66.36 63.8953 66.5306 63.9775Z" fill="#FF9A6C"/>
</g>
<g opacity="0.3">
<path d="M69.7728 51.1921C70.0954 51.4522 70.3841 51.7515 70.6323 52.0833C71.1569 52.6773 71.8963 53.5558 72.8127 54.6113L75.9727 58.4538L77.8308 60.7353C78.5407 61.5415 79.1754 62.411 79.7268 63.3329C80.0319 63.8196 80.2128 64.3739 80.2536 64.9469C80.2944 65.5199 80.1938 66.0942 79.9606 66.6193C79.4219 67.4922 78.6941 68.233 77.8308 68.787C76.3203 69.912 75.05 70.9927 73.7986 71.7637C73.2269 72.1243 72.5764 72.3411 71.9026 72.3957C71.3932 72.4172 70.8878 72.2968 70.4427 72.0481C69.7033 71.6121 69.6148 71.0812 69.6401 71.0938C69.8853 71.4068 70.1931 71.6651 70.5438 71.8522C70.9642 72.0392 71.4255 72.1154 71.8837 72.0734C72.4899 71.9979 73.0699 71.7814 73.5774 71.4414C74.7214 70.683 76.0106 69.5454 77.4895 68.4015C78.2742 67.8786 78.9397 67.1959 79.4424 66.3981C79.6311 65.9531 79.7078 65.4687 79.6659 64.9873C79.6241 64.5058 79.4649 64.0419 79.2022 63.6362C78.6702 62.7422 78.0611 61.8964 77.3821 61.1082L75.5493 58.8014L72.4778 54.883C71.6056 53.7581 70.9104 52.8417 70.4427 52.2033C70.1796 51.8944 69.9547 51.5549 69.7728 51.1921Z" fill="#FF9A6C"/>
</g>
<g opacity="0.3">
<path d="M74.6519 52.3486C74.7972 52.2475 76.6363 55.0851 79.7079 57.8091C80.4632 58.4478 81.1669 59.1451 81.8124 59.8946C82.3452 60.5323 82.7372 61.2753 82.9627 62.0751C83.3292 63.4844 82.8552 64.3503 82.811 64.306C82.8473 63.594 82.7661 62.8808 82.5708 62.1951C82.3085 61.4759 81.9117 60.8132 81.4016 60.2423C80.7531 59.5317 80.0585 58.8645 79.3223 58.2451C77.9832 57.058 76.7812 55.7246 75.7389 54.2699C75.2697 53.6961 74.9021 53.0463 74.6519 52.3486Z" fill="#FF9A6C"/>
</g>
<g opacity="0.3">
<path d="M82.0526 68.6227C82.0526 68.8313 80.4031 68.6227 78.6208 69.2547C77.8709 69.5211 77.1996 69.9708 76.6679 70.5629C76.2635 71.0243 76.1118 71.3972 76.0359 71.3719C75.9601 71.3466 75.9854 70.9105 76.3519 70.3228C76.8516 69.57 77.5842 69.0017 78.4375 68.7049C79.2683 68.4234 80.1486 68.3179 81.0224 68.3952C81.6671 68.4268 82.0589 68.5469 82.0526 68.6227Z" fill="#FF9A6C"/>
</g>
<path opacity="0.3" d="M45.8958 133.851C45.7489 134.534 45.4859 135.186 45.1184 135.779C43.5544 138.75 41.3764 141.355 38.7289 143.42C38.2107 143.886 37.6165 144.26 36.972 144.526C36.8645 144.38 39.4241 142.535 41.8826 139.565C44.3411 136.594 45.7315 133.776 45.8958 133.851Z" fill="#FF9A6C"/>
<path opacity="0.2" d="M86.9379 162.563L80.4031 127.803L76.6743 128.498L81.1362 163.163L86.9379 162.563Z" fill="#FF9A6C"/>
<path d="M111.194 250.62C111.194 250.62 102.978 194.877 103.01 186.788C103.01 183.628 101.316 162.671 101.316 162.671L87.1781 163.935L80.0112 125.863C80.0112 125.863 108.11 120.807 115.662 120.421C123.215 120.036 145.044 123.24 145.044 123.24L153.892 128.928C153.892 128.928 158.316 131.14 165.584 131.772C172.852 132.404 173.8 131.772 175.064 131.772C176.328 131.772 182.964 129.876 182.964 129.876L193.834 131.052C193.834 131.052 206.354 133.055 206.228 132.948L237.55 141.05L231.653 176.701L212.984 175.968L213.104 198.511C212.858 200.218 214.324 208.743 203.112 222.388L201.216 246.132L209.622 289.33H105.854L111.194 250.62Z" fill="#455A64"/>
<g opacity="0.3">
<path d="M183.242 129.383C183.337 129.44 183.09 130.085 182.345 131.058C181.266 132.413 179.97 133.579 178.508 134.509C176.338 135.907 173.92 136.879 171.386 137.371C170.672 137.479 169.938 137.631 169.186 137.713C168.434 137.795 167.657 137.852 166.873 137.877C166.09 137.902 165.287 137.877 164.472 137.877L162.007 137.631C158.863 137.189 155.848 136.088 153.159 134.401C150.986 133.014 149.086 131.24 147.553 129.168C146.516 127.793 145.665 126.286 145.025 124.687C144.589 123.55 144.494 122.873 144.602 122.842C144.709 122.81 145.006 123.392 145.606 124.409C146.431 125.838 147.383 127.19 148.45 128.448C150.017 130.291 151.874 131.867 153.949 133.112C156.493 134.608 159.306 135.589 162.228 136C165.165 136.425 168.149 136.393 171.076 135.905C173.463 135.509 175.764 134.71 177.883 133.542C179.317 132.744 180.648 131.774 181.845 130.653C182.724 129.825 183.147 129.326 183.242 129.383Z" fill="black"/>
</g>
<path d="M143.951 87.412C143.9 87.3677 143.723 87.551 143.319 87.6964C142.789 87.8918 142.203 87.8714 141.688 87.6395C140.386 87.077 139.394 84.9093 139.457 82.6467C139.486 81.5685 139.756 80.5104 140.247 79.5499C140.387 79.1656 140.619 78.821 140.921 78.5458C141.224 78.2706 141.589 78.073 141.985 77.9699C142.241 77.9151 142.508 77.9522 142.739 78.0747C142.97 78.1972 143.151 78.3973 143.249 78.6398C143.394 79.0001 143.3 79.2718 143.369 79.2718C143.439 79.2718 143.647 79.0759 143.578 78.5513C143.524 78.2368 143.366 77.9495 143.129 77.7361C142.799 77.4568 142.372 77.3183 141.941 77.3505C140.968 77.3505 140.045 78.2037 139.546 79.1644C138.947 80.2203 138.619 81.4079 138.591 82.6214C138.528 85.1494 139.685 87.5889 141.467 88.2146C141.799 88.3325 142.152 88.3744 142.503 88.3372C142.853 88.3 143.19 88.1847 143.489 87.9997C143.913 87.709 143.995 87.4309 143.951 87.412Z" fill="#FF9A6C"/>
<path d="M268.84 147.319C268.984 148.003 269.247 148.655 269.618 149.247C270.391 150.729 271.324 152.124 272.398 153.405C273.472 154.69 274.68 155.858 276.001 156.888C276.519 157.354 277.113 157.728 277.758 157.994C277.865 157.848 275.306 155.997 272.847 153.032C270.389 150.068 268.998 147.256 268.84 147.319Z" fill="#FF9A6C"/>
<path d="M183.741 114.986C175.068 114.683 166.649 111.979 159.422 107.175C159.422 107.175 164.984 120.225 183.489 119.429L183.741 114.986Z" fill="#FF9A6C" fill-opacity="0.2"/>
</g>
<defs>
<clipPath id="clip0_291_86">
<rect width="316" height="316" fill="white"/>
</clipPath>
</defs>
</svg>
